# This file uses centimeters as units for non-parametric coordinates.

v 1.427179 -0.040417 -0.463719
v 1.214031 -0.040417 -0.882045
v 0.882045 -0.040417 -1.214031
v 0.463718 -0.040417 -1.427179
v 0.000000 -0.040417 -1.500625
v -0.463718 -0.040417 -1.427179
v -0.882045 -0.040417 -1.214031
v -1.214031 -0.040417 -0.882045
v -1.427178 -0.040417 -0.463718
v -1.500624 -0.040417 0.000000
v -1.427178 -0.040417 0.463718
v -1.214030 -0.040417 0.882045
v -0.882045 -0.040417 1.214030
v -0.463718 -0.040417 1.427178
v -0.000000 -0.040417 1.500624
v 0.463718 -0.040417 1.427178
v 0.882045 -0.040417 1.214030
v 1.214030 -0.040417 0.882045
v 1.427178 -0.040417 0.463718
v 1.500624 -0.040417 0.000000
v 1.427179 0.040417 -0.463719
v 1.214031 0.040417 -0.882045
v 0.882045 0.040417 -1.214031
v 0.463718 0.040417 -1.427179
v 0.000000 0.040417 -1.500625
v -0.463718 0.040417 -1.427179
v -0.882045 0.040417 -1.214031
v -1.214031 0.040417 -0.882045
v -1.427178 0.040417 -0.463718
v -1.500624 0.040417 0.000000
v -1.427178 0.040417 0.463718
v -1.214030 0.040417 0.882045
v -0.882045 0.040417 1.214030
v -0.463718 0.040417 1.427178
v -0.000000 0.040417 1.500624
v 0.463718 0.040417 1.427178
v 0.882045 0.040417 1.214030
v 1.214030 0.040417 0.882045
v 1.427178 0.040417 0.463718
v 1.500624 0.040417 0.000000
v 0.000000 -0.040417 0.000000
v 0.000000 0.040417 0.000000
vt 0.698645 0.152259
vt 0.675170 0.106186
vt 0.638606 0.069622
vt 0.592533 0.046147
vt 0.541461 0.038058
vt 0.490388 0.046147
vt 0.444315 0.069623
vt 0.407751 0.106186
vt 0.384276 0.152259
vt 0.376187 0.203331
vt 0.384276 0.254404
vt 0.407751 0.300477
vt 0.444316 0.337040
vt 0.490388 0.360516
vt 0.541461 0.368605
vt 0.592533 0.360516
vt 0.638606 0.337040
vt 0.675170 0.300477
vt 0.698645 0.254404
vt 0.706734 0.203331
vt 0.000082 0.018375
vt 0.050069 0.018375
vt 0.100056 0.018375
vt 0.150042 0.018375
vt 0.200029 0.018375
vt 0.250016 0.018375
vt 0.300003 0.018375
vt 0.349990 0.018375
vt 0.399977 0.018375
vt 0.449964 0.018375
vt 0.499950 0.018375
vt 0.549937 0.018375
vt 0.599924 0.018375
vt 0.649910 0.018375
vt 0.699898 0.018375
vt 0.749884 0.018375
vt 0.799871 0.018375
vt 0.849858 0.018375
vt 0.899845 0.018375
vt 0.949832 0.018375
vt 0.999820 0.018375
vt 0.000082 0.029080
vt 0.050069 0.029080
vt 0.100056 0.029080
vt 0.150042 0.029080
vt 0.200029 0.029080
vt 0.250016 0.029080
vt 0.300003 0.029080
vt 0.349990 0.029080
vt 0.399977 0.029080
vt 0.449964 0.029080
vt 0.499950 0.029080
vt 0.549937 0.029080
vt 0.599924 0.029080
vt 0.649910 0.029080
vt 0.699898 0.029080
vt 0.749884 0.029080
vt 0.799871 0.029080
vt 0.849858 0.029080
vt 0.899845 0.029080
vt 0.949832 0.029080
vt 0.999820 0.029080
vt 0.698645 0.152259
vt 0.675170 0.106186
vt 0.638606 0.069622
vt 0.592533 0.046147
vt 0.541461 0.038059
vt 0.490388 0.046147
vt 0.444315 0.069623
vt 0.407751 0.106186
vt 0.384276 0.152259
vt 0.376187 0.203331
vt 0.384276 0.254403
vt 0.407751 0.300477
vt 0.444316 0.337041
vt 0.490388 0.360516
vt 0.541461 0.368605
vt 0.592533 0.360516
vt 0.638606 0.337041
vt 0.675170 0.300477
vt 0.698645 0.254403
vt 0.706734 0.203331
vt 0.541461 0.196721
vt 0.541461 0.196721
vn 0.951057 0.000000 -0.309016
vn 0.809017 0.000000 -0.587785
vn 0.809017 0.000000 -0.587785
vn 0.951057 0.000000 -0.309016
vn 0.587785 0.000000 -0.809017
vn 0.587785 0.000000 -0.809017
vn 0.309017 0.000000 -0.951057
vn 0.309017 0.000000 -0.951057
vn -0.000000 0.000000 -1.000000
vn -0.000000 0.000000 -1.000000
vn -0.309017 0.000000 -0.951056
vn -0.309017 0.000000 -0.951056
vn -0.587785 0.000000 -0.809017
vn -0.587785 0.000000 -0.809017
vn -0.809017 0.000000 -0.587785
vn -0.809017 0.000000 -0.587785
vn -0.951057 0.000000 -0.309017
vn -0.951057 0.000000 -0.309017
vn -1.000000 0.000000 0.000000
vn -1.000000 0.000000 0.000000
vn -0.951057 0.000000 0.309017
vn -0.951057 0.000000 0.309017
vn -0.809017 0.000000 0.587785
vn -0.809017 0.000000 0.587785
vn -0.587785 0.000000 0.809017
vn -0.587785 0.000000 0.809017
vn -0.309017 0.000000 0.951057
vn -0.309017 0.000000 0.951057
vn 0.000000 0.000000 1.000000
vn 0.000000 0.000000 1.000000
vn 0.309017 0.000000 0.951057
vn 0.309017 0.000000 0.951057
vn 0.587785 0.000000 0.809017
vn 0.587785 0.000000 0.809017
vn 0.809017 0.000000 0.587785
vn 0.809017 0.000000 0.587785
vn 0.951057 0.000000 0.309017
vn 0.951057 0.000000 0.309017
vn 1.000000 0.000000 0.000001
vn 1.000000 0.000000 0.000001
vn 0.000000 -1.000000 0.000000
vn 0.000000 -1.000000 0.000000
vn 0.000000 -1.000000 0.000000
vn 0.000000 -1.000000 0.000000
vn 0.000000 -1.000000 0.000000
vn 0.000000 -1.000000 0.000000
vn 0.000000 -1.000000 0.000000
vn 0.000000 -1.000000 0.000000
vn 0.000000 -1.000000 0.000000
vn 0.000000 -1.000000 0.000000
vn 0.000000 -1.000000 0.000000
vn 0.000000 -1.000000 0.000000
vn 0.000000 -1.000000 0.000000
vn 0.000000 -1.000000 0.000000
vn 0.000000 -1.000000 0.000000
vn 0.000000 -1.000000 0.000000
vn 0.000000 -1.000000 0.000000
vn 0.000000 -1.000000 0.000000
vn 0.000000 -1.000000 0.000000
vn 0.000000 -1.000000 0.000000
vn 0.000000 -1.000000 0.000000
vn 0.000000 1.000000 0.000000
vn 0.000000 1.000000 0.000000
vn 0.000000 1.000000 0.000000
vn 0.000000 1.000000 0.000000
vn 0.000000 1.000000 0.000000
vn 0.000000 1.000000 0.000000
vn 0.000000 1.000000 0.000000
vn 0.000000 1.000000 0.000000
vn 0.000000 1.000000 0.000000
vn 0.000000 1.000000 0.000000
vn 0.000000 1.000000 0.000000
vn 0.000000 1.000000 0.000000
vn 0.000000 1.000000 0.000000
vn 0.000000 1.000000 0.000000
vn 0.000000 1.000000 0.000000
vn 0.000000 1.000000 0.000000
vn 0.000000 1.000000 0.000000
vn 0.000000 1.000000 0.000000
vn 0.000000 1.000000 0.000000
vn 0.000000 1.000000 0.000000
vn 0.000000 1.000000 0.000000
f 1/21/1 2/22/2 22/43/3 21/42/4
f 2/22/2 3/23/5 23/44/6 22/43/3
f 3/23/5 4/24/7 24/45/8 23/44/6
f 4/24/7 5/25/9 25/46/10 24/45/8
f 5/25/9 6/26/11 26/47/12 25/46/10
f 6/26/11 7/27/13 27/48/14 26/47/12
f 7/27/13 8/28/15 28/49/16 27/48/14
f 8/28/15 9/29/17 29/50/18 28/49/16
f 9/29/17 10/30/19 30/51/20 29/50/18
f 10/30/19 11/31/21 31/52/22 30/51/20
f 11/31/21 12/32/23 32/53/24 31/52/22
f 12/32/23 13/33/25 33/54/26 32/53/24
f 13/33/25 14/34/27 34/55/28 33/54/26
f 14/34/27 15/35/29 35/56/30 34/55/28
f 15/35/29 16/36/31 36/57/32 35/56/30
f 16/36/31 17/37/33 37/58/34 36/57/32
f 17/37/33 18/38/35 38/59/36 37/58/34
f 18/38/35 19/39/37 39/60/38 38/59/36
f 19/39/37 20/40/39 40/61/40 39/60/38
f 20/40/39 1/41/1 21/62/4 40/61/40
f 2/2/41 1/1/42 41/83/43
f 3/3/44 2/2/41 41/83/43
f 4/4/45 3/3/44 41/83/43
f 5/5/46 4/4/45 41/83/43
f 6/6/47 5/5/46 41/83/43
f 7/7/48 6/6/47 41/83/43
f 8/8/49 7/7/48 41/83/43
f 9/9/50 8/8/49 41/83/43
f 10/10/51 9/9/50 41/83/43
f 11/11/52 10/10/51 41/83/43
f 12/12/53 11/11/52 41/83/43
f 13/13/54 12/12/53 41/83/43
f 14/14/55 13/13/54 41/83/43
f 15/15/56 14/14/55 41/83/43
f 16/16/57 15/15/56 41/83/43
f 17/17/58 16/16/57 41/83/43
f 18/18/59 17/17/58 41/83/43
f 19/19/60 18/18/59 41/83/43
f 20/20/61 19/19/60 41/83/43
f 1/1/42 20/20/61 41/83/43
f 21/81/62 22/80/63 42/84/64
f 22/80/63 23/79/65 42/84/64
f 23/79/65 24/78/66 42/84/64
f 24/78/66 25/77/67 42/84/64
f 25/77/67 26/76/68 42/84/64
f 26/76/68 27/75/69 42/84/64
f 27/75/69 28/74/70 42/84/64
f 28/74/70 29/73/71 42/84/64
f 29/73/71 30/72/72 42/84/64
f 30/72/72 31/71/73 42/84/64
f 31/71/73 32/70/74 42/84/64
f 32/70/74 33/69/75 42/84/64
f 33/69/75 34/68/76 42/84/64
f 34/68/76 35/67/77 42/84/64
f 35/67/77 36/66/78 42/84/64
f 36/66/78 37/65/79 42/84/64
f 37/65/79 38/64/80 42/84/64
f 38/64/80 39/63/81 42/84/64
f 39/63/81 40/82/82 42/84/64
f 40/82/82 21/81/62 42/84/64
