# This file uses centimeters as units for non-parametric coordinates.

v -0.500000 -0.500000 0.500000
v 0.500000 -0.500000 0.500000
v -0.500000 0.500000 0.500000
v 0.500000 0.500000 0.500000
v -0.500000 0.500000 -0.500000
v 0.500000 0.500000 -0.500000
v -0.500000 -0.500000 -0.500000
v 0.500000 -0.500000 -0.500000
v -0.499999 1.500001 0.499999
v 0.499999 1.500001 0.499999
v 0.499999 1.500001 -0.500000
v -0.499999 1.500001 -0.500000
v -0.500000 -1.500001 -0.499999
v 0.500000 -1.500001 -0.499999
v 0.499999 -1.500001 0.500000
v -0.499999 -1.500001 0.500000
v -0.500000 -0.500000 1.500001
v 0.500000 -0.500000 1.500001
v 0.500000 0.500000 1.500001
v -0.500000 0.500000 1.500001
v -0.500000 0.500000 -1.500001
v 0.500000 0.500000 -1.500001
v 0.500000 -0.500000 -1.500001
v -0.500000 -0.500000 -1.500001
vt 0.151919 0.151442
vt 0.301846 0.151442
vt 0.301846 0.301369
vt 0.151919 0.301369
vt 0.151919 0.001515
vt 0.301846 0.001515
vt 0.451773 0.151442
vt 0.451773 0.301369
vt 0.301846 0.451296
vt 0.151919 0.451296
vt 0.001992 0.301369
vt 0.001992 0.151442
vt 0.608169 0.151442
vt 0.758096 0.151442
vt 0.758096 0.301369
vt 0.608169 0.301369
vt 0.608169 0.001515
vt 0.758096 0.001515
vt 0.908023 0.151442
vt 0.908023 0.301369
vt 0.758096 0.451296
vt 0.608169 0.451296
vt 0.458242 0.301369
vt 0.458242 0.151442
vt 0.692019 0.605215
vt 0.692019 0.455288
vt 0.841946 0.455288
vt 0.841946 0.605215
vt 0.379894 0.455288
vt 0.529821 0.455288
vt 0.529821 0.605215
vt 0.379894 0.605215
vt 0.315968 0.609206
vt 0.465895 0.609206
vt 0.465895 0.759133
vt 0.315968 0.759133
vt 0.623760 0.759133
vt 0.473833 0.759133
vt 0.473833 0.609206
vt 0.623760 0.609206
vt 0.631698 0.609206
vt 0.781625 0.609206
vt 0.781625 0.759133
vt 0.631698 0.759133
vt 0.939491 0.759133
vt 0.789564 0.759133
vt 0.789564 0.609206
vt 0.939491 0.609206
vt 0.848081 0.455288
vt 0.998008 0.455288
vt 0.998008 0.605215
vt 0.848081 0.605215
vt 0.535956 0.605215
vt 0.535956 0.455288
vt 0.685883 0.455288
vt 0.685883 0.605215
vt 0.223832 0.455288
vt 0.373759 0.455288
vt 0.373759 0.605215
vt 0.223832 0.605215
vt 0.217696 0.455288
vt 0.217696 0.605215
vt 0.067769 0.605215
vt 0.067769 0.455288
vt 0.001992 0.759133
vt 0.001992 0.609206
vt 0.151919 0.609206
vt 0.151919 0.759133
vt 0.308030 0.759133
vt 0.158103 0.759133
vt 0.158103 0.609206
vt 0.308030 0.609206
vn 0.000000 0.000000 1.000000
vn 0.000000 0.000000 1.000000
vn 0.000000 0.000000 1.000000
vn 0.000000 0.000000 1.000000
vn 0.000000 1.000000 -0.000000
vn 0.000000 1.000000 -0.000000
vn 0.000000 1.000000 -0.000000
vn 0.000000 1.000000 -0.000000
vn 0.000000 0.000000 -1.000000
vn 0.000000 0.000000 -1.000000
vn 0.000000 0.000000 -1.000000
vn 0.000000 0.000000 -1.000000
vn 0.000000 -1.000000 0.000000
vn 0.000000 -1.000000 0.000000
vn 0.000000 -1.000000 0.000000
vn 0.000000 -1.000000 0.000000
vn 1.000000 -0.000000 0.000000
vn 1.000000 -0.000000 0.000000
vn 1.000000 0.000000 -0.000000
vn 1.000000 0.000000 -0.000000
vn -1.000000 -0.000000 0.000000
vn -1.000000 -0.000000 0.000000
vn -1.000000 0.000000 -0.000000
vn -1.000000 0.000000 -0.000000
vn 0.000000 0.000001 1.000000
vn 0.000000 0.000001 1.000000
vn 0.000000 0.000001 1.000000
vn 0.000000 0.000001 1.000000
vn 1.000000 0.000001 -0.000000
vn 1.000000 0.000001 -0.000000
vn 0.000000 -0.000000 -1.000000
vn 0.000000 -0.000000 -1.000000
vn 0.000000 -0.000000 -1.000000
vn 0.000000 -0.000000 -1.000000
vn -1.000000 0.000001 -0.000000
vn -1.000000 0.000001 -0.000000
vn 0.000000 -0.000001 -1.000000
vn 0.000000 -0.000001 -1.000000
vn 0.000000 -0.000001 -1.000000
vn 0.000000 -0.000001 -1.000000
vn 1.000000 -0.000000 0.000001
vn 1.000000 -0.000000 0.000001
vn 0.000000 0.000000 1.000000
vn 0.000000 0.000000 1.000000
vn 0.000000 0.000000 1.000000
vn 0.000000 0.000000 1.000000
vn -1.000000 -0.000000 0.000001
vn -1.000000 -0.000000 0.000001
vn 0.000000 -1.000000 0.000000
vn 0.000000 -1.000000 0.000000
vn 0.000000 -1.000000 0.000000
vn 0.000000 -1.000000 0.000000
vn 1.000000 0.000000 0.000000
vn 1.000000 0.000000 0.000000
vn 0.000000 1.000000 0.000000
vn 0.000000 1.000000 0.000000
vn 0.000000 1.000000 0.000000
vn 0.000000 1.000000 0.000000
vn -1.000000 0.000000 0.000000
vn -1.000000 0.000000 0.000000
vn 0.000000 1.000000 0.000000
vn 0.000000 1.000000 0.000000
vn 0.000000 1.000000 0.000000
vn 0.000000 1.000000 0.000000
vn 1.000000 0.000000 0.000000
vn 1.000000 0.000000 0.000000
vn 0.000000 -1.000000 0.000000
vn 0.000000 -1.000000 0.000000
vn 0.000000 -1.000000 0.000000
vn 0.000000 -1.000000 0.000000
vn -1.000000 0.000000 0.000000
vn -1.000000 0.000000 0.000000
f 17/49/1 18/50/2 19/51/3 20/52/4
f 9/25/5 10/26/6 11/27/7 12/28/8
f 21/53/9 22/54/10 23/55/11 24/56/12
f 13/29/13 14/30/14 15/31/15 16/32/16
f 2/1/17 8/2/18 6/3/19 4/4/20
f 7/13/21 1/14/22 3/15/23 5/16/24
f 3/57/25 4/58/26 10/59/27 9/60/28
f 4/4/20 6/3/19 11/9/29 10/10/30
f 6/61/31 5/62/32 12/63/33 11/64/34
f 5/16/24 3/15/23 9/21/35 12/22/36
f 7/65/37 8/66/38 14/67/39 13/68/40
f 8/2/18 2/1/17 15/5/41 14/6/42
f 2/69/43 1/70/44 16/71/45 15/72/46
f 1/14/22 7/13/21 13/17/47 16/18/48
f 1/33/49 2/34/50 18/35/51 17/36/52
f 2/1/17 4/4/20 19/11/53 18/12/54
f 4/37/55 3/38/56 20/39/57 19/40/58
f 3/15/23 1/14/22 17/19/59 20/20/60
f 5/41/61 6/42/62 22/43/63 21/44/64
f 6/3/19 8/2/18 23/7/65 22/8/66
f 8/45/67 7/46/68 24/47/69 23/48/70
f 7/13/21 5/16/24 21/23/71 24/24/72
